<svg width="32" height="32" viewBox="0 0 32 32" fill="none" xmlns="http://www.w3.org/2000/svg">
<path d="M7.17989 28.9473L8.66758 27.5751L6.79662 26.5L6.35309 28.47C6.24536 28.9485 6.81934 29.2799 7.17989 28.9473Z" fill="#333333"/>
<path d="M22.1108 5.46487L19.224 3.7982C18.7457 3.52206 18.1342 3.68594 17.858 4.16423L7.96912 21.2923L12.5879 23.959L22.4768 6.8309C22.753 6.3526 22.5891 5.74101 22.1108 5.46487Z" fill="#7EB771"/>
<path d="M14.6679 28H26.6679M12.5879 23.959L22.4768 6.8309C22.753 6.3526 22.5891 5.74101 22.1108 5.46487L19.224 3.7982C18.7457 3.52206 18.1342 3.68594 17.858 4.16423L7.96912 21.2923M12.5879 23.959L7.96912 21.2923M12.5879 23.959L7.17989 28.9473M7.96912 21.2923L6.35309 28.47M7.17989 28.9473C6.81934 29.2799 6.24536 28.9485 6.35309 28.47M7.17989 28.9473L8.66758 27.5751L6.79662 26.5L6.35309 28.47" stroke="#333333" stroke-width="1.5" stroke-linecap="round" stroke-linejoin="round"/>
</svg>
